<?xml version="1.0" standalone="no"?>
<!DOCTYPE svg PUBLIC "-//W3C//DTD SVG 20010904//EN"
 "http://www.w3.org/TR/2001/REC-SVG-20010904/DTD/svg10.dtd">
<svg version="1.0" xmlns="http://www.w3.org/2000/svg"
 width="512.000000pt" height="512.000000pt" viewBox="0 0 512.000000 512.000000"
 preserveAspectRatio="xMidYMid meet">

<g transform="translate(0.000000,512.000000) scale(0.100000,-0.100000)"
fill="#000000" stroke="none">
<path d="M255 4946 c-41 -18 -83 -69 -91 -111 -14 -78 -1 -101 136 -240 l129
-130 -40 -55 c-87 -122 -168 -311 -205 -480 -18 -81 -19 -153 -19 -1370 0
-1217 1 -1289 19 -1370 111 -508 472 -875 986 -1003 84 -21 102 -21 1335 -24
1104 -3 1263 -2 1360 12 186 27 383 104 535 208 l65 44 130 -127 c106 -104
137 -130 167 -135 61 -11 108 3 149 44 41 41 55 88 44 149 -6 33 -243 274
-2273 2305 -1344 1345 -2280 2275 -2299 2283 -40 17 -89 17 -128 0z m2192
-2498 c981 -981 1783 -1786 1783 -1790 0 -12 -115 -77 -194 -108 -76 -31 -79
-31 -96 -13 -9 10 -312 367 -672 793 -360 426 -683 801 -717 833 -393 363
-1005 389 -1436 60 -135 -104 -204 -191 -416 -532 -105 -168 -198 -313 -205
-321 -13 -13 -14 153 -12 1225 3 1235 3 1240 25 1316 12 41 33 103 47 136 29
70 94 183 104 183 4 0 809 -802 1789 -1782z m-447 -340 c95 -24 218 -85 296
-148 41 -32 266 -290 663 -759 330 -391 601 -713 601 -716 0 -3 -512 -4 -1137
-2 -1133 3 -1138 3 -1215 25 -162 45 -299 120 -413 225 -76 70 -175 192 -175
216 0 19 515 840 565 901 126 154 342 265 550 283 68 6 186 -5 265 -25z"/>
<path d="M1240 4944 c-87 -14 -284 -72 -320 -94 -12 -8 10 -34 107 -132 l122
-122 73 20 c70 18 125 19 1302 22 1059 2 1241 0 1317 -13 380 -65 686 -355
776 -735 17 -70 18 -163 18 -1330 0 -1203 -1 -1258 -19 -1333 l-19 -79 122
-121 c97 -97 123 -119 131 -107 5 8 25 62 44 120 68 206 67 182 63 1575 -3
1233 -3 1251 -24 1335 -127 509 -474 856 -983 983 -84 21 -99 21 -1350 23
-1073 2 -1279 0 -1360 -12z"/>
<path d="M3321 3744 c-253 -68 -410 -331 -346 -579 67 -256 329 -415 580 -350
256 67 415 329 350 578 -67 259 -333 419 -584 351z m182 -318 c103 -43 128
-177 48 -257 -112 -113 -296 -12 -267 146 18 94 128 150 219 111z"/>
</g>
</svg>
